<?xml version="1.0" encoding="UTF-8" standalone="no"?>
<!-- Created with Inkscape (http://www.inkscape.org/) -->

<svg
   xmlns:dc="http://purl.org/dc/elements/1.1/"
   xmlns:cc="http://creativecommons.org/ns#"
   xmlns:rdf="http://www.w3.org/1999/02/22-rdf-syntax-ns#"
   xmlns:svg="http://www.w3.org/2000/svg"
   xmlns="http://www.w3.org/2000/svg"
   xmlns:inkscape="http://www.inkscape.org/namespaces/inkscape"
   version="1.1"
   width="500"
   height="500"
   viewBox="0 0 500 500"
   id="Layer_1"
   xml:space="preserve"><metadata
     id="metadata21"><rdf:RDF><cc:Work
         rdf:about=""><dc:format>image/svg+xml</dc:format><dc:type
           rdf:resource="http://purl.org/dc/dcmitype/StillImage" /></cc:Work></rdf:RDF></metadata><defs
     id="defs19" /><path
     d="m 7.4,419.6 c 0,0 -4.1,-27.6 6.4,-51 10.6,-23.4 39.1,-38.1 68.5,-47.8 29.4,-9.7 51,-8.3 57.9,-9.7 6.9,-1.4 44.5,-22.6 44.5,-22.6 0,0 13.5,20.9 14.9,31.4 1.4,10.6 3.4,26 3.4,26 0,0 -20.6,-0.8 -37.6,-0.3 -17,0.5 -59.7,-2 -72.9,2.1 -8.3,2.6 -14.5,10.7 -22.3,19 -7.8,8.3 -18.7,13 -21.1,19.8 -1.6,4.4 -2.2,9.7 -7.8,15.2 -2.7,2.8 -23.4,13.3 -33.9,17.9 z"
     inkscape:connector-curvature="0"
     id="path3" /><path
     d="m 207.3,430.6 c 3.1,14.4 10.6,36.9 27.9,50.1 17.3,13.3 36.3,19 54.2,7.5 17.9,-11.5 19.6,-18 32.3,-25.7 12.7,-7.7 21.1,-12.9 28.2,-15.8 7.1,-2.9 14.7,-6.3 24.8,-8.9 10.1,-2.6 12.7,-2.9 17.9,-4.6 5.2,-1.7 6.6,-9.8 6,-13.5 -0.6,-3.7 -3.5,-6 -9.5,-8.1 -6,-2.1 -17.6,0.9 -22.8,2 -5.2,1.1 -19,5.8 -26.2,6 -7.2,0.3 -10.7,1.7 -14.7,4 -4,2.3 5.8,-5.5 10.9,-8.4 5.7,-3.1 10.9,-4.9 14.7,-9.5 3.7,-4.6 4,-8.4 1.2,-12.1 -6.2,-8.1 -17.2,-8.1 -26.4,-3.5 -9.2,4.6 -12.8,7.5 -18.9,11.2 -6,3.7 -19.5,8.5 -19.5,8.5 0,0 2.7,-1.7 10.4,-8.1 8.6,-7.2 11.2,-10.3 10.3,-16.5 -1.2,-8.7 -9.1,-11.3 -13.7,-11.8 -7.1,-0.9 -9.5,1.2 -15.3,3.6 -5.4,2.3 -10.8,6.1 -10.8,6.1 0,0 6.5,-11.7 5.4,-15.3 -1.9,-6 -5.6,-9.8 -10.8,-9.9 -2.8,0 -5.5,0.4 -5.5,0.4 0,0 -1.5,-3.4 -5.5,-10.4 -3.8,-6.6 -10.9,-13.3 -13.5,-16.7 -2.6,-3.5 -3.3,-10 -4.4,-18 -1.1,-8 -3.1,-16.6 -8,-21.8 -4.9,-5.2 -14,-10.9 -18.6,-12.4 -4.7,-1.4 -12.2,-1.2 -14.5,0 -2.3,1.2 -4,4.9 -1,10.8 3,5.9 7.6,16 10.2,22.9 2.6,6.9 6,27.4 6.6,39.5 0.6,12.1 5.5,33.1 2.9,47 -2.6,14.1 -4.3,31.4 -4.3,31.4 z"
     inkscape:connector-curvature="0"
     id="path5" /><g
     id="g7"><path
       d="m 330.8,141.1 c -0.6,-8.6 -2.9,-19 -4.9,-24.5 -1.5,-4 -6.6,-4.9 -10.5,-4.6 C 292.7,40.1 245.1,7.4 181.4,25.3 150.8,33.9 127,65 121.3,99.9 c -3.4,20.8 0,42.6 6.7,66.6 -3.1,-0.7 -6.1,-1 -8.1,-0.1 -4.5,2 -6,6.9 -5.4,11.8 0.6,4.9 3.8,15 5.4,18.7 1.5,3.7 13.1,18.4 16.2,25.3 3.2,6.9 8.9,21.7 11.2,22.9 2.3,1.3 5.8,-1.9 7.2,-2.8 0.7,-0.4 2.7,-1.9 4.4,-3.3 8.3,17.7 17.1,32 26.5,43.5 -0.5,-4.1 1.2,-6.7 3.2,-7.7 2.9,-1.5 12.5,-1.8 18.4,0 6,1.8 17.5,9.2 23.7,15.8 5.8,6.1 8.4,16 9.8,25.4 12.8,4.9 26.2,7.9 47.6,1.8 14.4,-4.1 25,-11.3 32,-27.6 6.3,-14.7 3.5,-32 4.6,-52.6 1,-18.6 6.2,-44.4 3.5,-64.9 0,-0.2 0,-0.3 -0.1,-0.5 1,0.8 1.9,0.9 2.6,0.1 3.8,-4.4 0.7,-22.6 0.1,-31.2 z m -168.2,8.3 c 5.9,-10.8 21.2,-19 33.5,-14.3 3.6,1.4 2,7.2 -1.6,5.8 -9.9,-3.8 -22,2.9 -26.7,11.5 -1.9,3.4 -7.1,0.4 -5.2,-3 z m 46.8,4.4 c -5.2,0.7 -9.5,1.5 -13.8,3.2 3.4,0.1 6.2,3 6.2,6.5 0,2.6 -1.6,4.9 -3.8,5.9 -0.2,0.1 -0.4,0.2 -0.6,0.3 -8.3,1.8 -16.5,3.9 -24.7,6.1 -1.2,0.3 -2.4,-1.1 -1.7,-2.2 3.8,-6 9.3,-11.8 15.5,-15.4 3.4,-1.9 7,-4.3 10.7,-5.4 3.7,-1.1 7.6,-1.3 11.4,-1.9 1.8,-0.3 2.7,2.6 0.8,2.9 z M 254.3,126 c 4.1,-2.9 9.6,-6.4 14.8,-6.3 6.8,0 13.4,3.2 19.1,6.7 3.3,2 0.3,7.2 -3,5.2 -4.4,-2.7 -10.7,-6.4 -16.1,-5.9 -4.2,0.4 -8.4,3.1 -11.8,5.5 -3.2,2.2 -6.2,-3 -3,-5.2 z m 32.9,119.6 c -1,1.4 -6.8,8.3 -20.9,12.1 -10.8,2.9 -25.5,3.2 -34.6,0 -5.2,-1.8 -9.6,-2.2 -9.8,-4.5 -0.1,-2.2 2.1,-5.3 4.8,-7 2.7,-1.7 12.1,-3.3 21.9,-5.6 9.8,-2.3 25,-6.6 29.6,-7.5 1.7,-0.3 6.1,-0.3 9.8,0.2 2,0.3 4.4,1.6 4.6,2.9 0.6,3.5 -3.9,7.2 -5.4,9.4 z m 5.6,-102.5 c -8.3,1 -15.1,4.6 -23,7.1 -0.9,0.3 -1.6,-0.3 -1.8,-1 -2.5,-0.8 -4.3,-3.1 -4.3,-5.8 0,-1.3 0.4,-2.5 1.1,-3.5 -3.6,0.5 -7.1,1.4 -10.4,3 -1.7,0.8 -3.3,-1.7 -1.5,-2.6 12.6,-6.1 27.4,-3.7 40.3,-0.2 1.7,0.5 1.2,2.8 -0.4,3 z"
       inkscape:connector-curvature="0"
       id="path9" /><path
       d="m 189.3,160 c -5.2,3 -9.8,7 -13.5,11.8 5,-1.3 10,-2.6 15,-3.7 -1.2,-1.2 -1.9,-2.8 -1.9,-4.6 0,-1.5 0.5,-2.8 1.3,-3.9 -0.4,0 -0.6,0.2 -0.9,0.4 z"
       inkscape:connector-curvature="0"
       id="path11" /><path
       d="m 274.5,139.7 c 0.8,1 1.3,2.3 1.3,3.7 0,0.4 0,0.8 -0.1,1.2 2.4,-1.1 4.8,-2.1 7.3,-2.7 0.8,-0.2 1.5,-0.4 2.3,-0.5 -3.5,-0.9 -7.2,-1.5 -10.8,-1.7 z"
       inkscape:connector-curvature="0"
       id="path13" /></g><path
     d="m 461.6,304.6 c -20,-5.8 -37.6,-11.6 -71.1,-15.3 -33.4,-3.7 -38.8,-4.1 -44.2,-4.1 -5.4,0 -13.1,-2.1 -14.6,-2.9 -1.5,-0.8 -4.1,-2.6 -5.3,-2.6 -1.2,0 -0.7,0 -0.7,0 0,0 -0.9,10 -6.1,19.6 -2.3,4.2 -12.7,13 -12.7,13 -2.6,1.6 -1.8,18.8 -5,20.7 -2,1.2 -10.4,-12.3 -12.6,-11.3 0,0 -12.1,2.5 -21.4,4 -9.8,1.5 -27.3,-4.3 -27.3,-4.3 0,0 -0.5,4.3 2.1,8.8 1.3,2.3 6.5,6.6 8.3,8.2 4.6,4.1 8.6,14.4 8.6,14.4 0,0 3.7,-0.7 6.6,0.9 2.9,1.5 6.4,2.1 8.6,5.3 1.8,2.6 4,8.8 4,8.8 0,0 33,-16.3 77.8,-25.9 44.7,-9.6 69.3,-14.4 84.9,-15.6 15.6,-1.2 51.8,-0.4 51.8,-0.4 0,0 -11.7,-15.5 -31.7,-21.3 z"
     inkscape:connector-curvature="0"
     id="path15" /></svg>