<?xml version="1.0" encoding="UTF-8" standalone="no"?>
<!-- Created with Inkscape (http://www.inkscape.org/) -->

<svg
   xmlns:dc="http://purl.org/dc/elements/1.1/"
   xmlns:cc="http://creativecommons.org/ns#"
   xmlns:rdf="http://www.w3.org/1999/02/22-rdf-syntax-ns#"
   xmlns:svg="http://www.w3.org/2000/svg"
   xmlns="http://www.w3.org/2000/svg"
   xmlns:xlink="http://www.w3.org/1999/xlink"
   xmlns:inkscape="http://www.inkscape.org/namespaces/inkscape"
   version="1.1"
   width="500"
   height="500"
   viewBox="0 0 500 500"
   id="Layer_1"
   xml:space="preserve"><metadata
     id="metadata27"><rdf:RDF><cc:Work
         rdf:about=""><dc:format>image/svg+xml</dc:format><dc:type
           rdf:resource="http://purl.org/dc/dcmitype/StillImage" /></cc:Work></rdf:RDF></metadata><defs
     id="defs25" /><style
     type="text/css"
     id="style3" /><g
     id="g5"><defs
       id="defs7"><rect
         width="500"
         height="500"
         x="0"
         y="0"
         id="SVGID_1_" /></defs><clipPath
       id="SVGID_2_"><use
         id="use11"
         style="overflow:visible"
         x="0"
         y="0"
         width="1"
         height="1"
         xlink:href="#SVGID_1_" /></clipPath><g
       clip-path="url(#SVGID_2_)"
       id="g13"><path
         d="m 174,386 c -2.7,-3.9 -3,-12.2 -4.9,-14.4 -1.9,-2.2 -16.4,-11.3 -23.9,-15.4 -7.4,-4.1 -15.1,-9.6 -19.1,-13.4 -4,-3.8 -3.7,-13 -1,-17.1 2.7,-4.1 18.9,0 27.7,2.7 8.8,2.7 15.4,5.1 15.4,5.1 0,0 -29.6,-16.1 -39.4,-21.8 -9.8,-5.8 -8.6,-11.9 -8.6,-11.9 0,0 -28,-3.2 -52.8,-5.9 -0.5,-0.1 -1,-0.1 -1.5,-0.2 -6.7,-1.6 -13.3,-3.4 -20,-5 -6.2,-1.6 -12.4,-3.1 -18.6,-4.4 -18.8,-4.1 -38.2,-6.8 -59.2,-5.2 -26.7,2.1 -44.3,19.2 -59.3,33.2 -2.1,1.9 -5.4,4.9 -4.7,5.9 17.8,0.4 33.9,-3.6 48.6,0 7.9,2 15.5,6.2 23.1,8.3 8.7,2.4 17.7,3.8 25.5,6.5 24.9,8.7 44.5,29 69.4,39.2 6,2.5 12.2,4.3 18.5,6.1 0,0 0,0 0,0 21.2,6.4 31,13.4 44.9,18.1 15,5.1 58.9,16.7 58.9,16.7 0,0 -16.3,-23.2 -19,-27.1 z"
         inkscape:connector-curvature="0"
         id="path15" /><path
         d="m 143.8,288.1 -2.5,-11.9 c 4.7,2.4 8.8,4.4 15.3,7.8 6.5,3.4 28.1,18.7 28.1,18.7 0,0 -8.4,-5.2 -14.4,-6.1 -6,-0.9 -16.4,-6.7 -26.5,-8.5 z"
         inkscape:connector-curvature="0"
         id="path17" /><path
         d="m 518,430.9 c -17.5,-10.4 -38.2,-18.1 -56.9,-27.9 -13.9,-7.3 -27,-16.2 -38,-26.1 -3.9,-3.5 -7.3,-8 -11.3,-10.1 -10.1,-5.4 -22.8,-7.1 -33.2,-11.3 -7.6,-3 -13.4,-6.6 -17.8,-10.2 -2.3,-6.7 -5.3,-14.4 -8.6,-14 0,0 -2.1,4.9 -6.8,9.3 -4.8,4.5 -20.3,17.7 -20.3,17.7 0,0 2.6,30.7 6.4,41.9 3.7,11.2 14.2,24 14.2,24 2.4,5.2 8,15.1 9.8,20.3 15.5,0.4 29.4,1.4 43.3,0 7.9,-0.8 15.1,-3.8 22.5,-4.2 16.4,-0.7 35.8,5.8 48,9.5 4.5,1.3 9.5,1.9 13.1,3.6 9.3,4.4 18,18 25.5,26.7 8.5,9.8 17.5,17.1 25.5,26.7 9.7,11.6 18.1,28.3 26.1,40.9 0.8,1.3 1.2,4.6 3.6,4.2 6.6,-58.5 -8,-99 -45.1,-121 z"
         inkscape:connector-curvature="0"
         id="path19" /><path
         d="m 395.6,186.1 c -1.4,-1.2 -4.1,-2.1 -6.7,-2.3 C 404,123.4 410.2,47.3 306.6,22.6 242.4,7.3 170.3,44.1 145.4,130.9 c -0.5,1.9 -4,20 -4.5,22 -5.1,19.6 -1.1,23 -1.8,45.3 -0.2,7.2 -4.2,11.8 -3.8,23.7 0.3,7.6 0.8,15.3 1.5,22.9 l 0,0 c 0,0 1.4,-0.2 4.1,-0.2 8.8,0 12.6,4.1 22.6,8.3 9.9,4.3 20.8,8.6 28.9,13.1 8.1,4.5 17.1,11.7 17.1,11.7 0,0 -8.8,-13.1 -11.5,-15.1 -2.7,-2 -13.3,-13.5 -20.1,-17.1 -6.8,-3.6 -23.7,-10.1 -20,-20.5 1.8,-5.3 8.4,-5.1 15.9,-3.2 -1.7,-1.3 -2.8,-3.3 -2.8,-5.6 0,-3.4 2.5,-6.2 5.7,-6.8 -8,-4.2 -17.6,-5.8 -23.2,1.3 -1.6,2 -4.5,-0.8 -2.9,-2.9 10.2,-12.8 31,-3 39.8,6.9 1.7,2 -1.1,4.8 -2.9,2.9 -0.8,-0.9 -1.7,-1.8 -2.7,-2.7 0.1,0.4 0.1,0.8 0.1,1.3 0,3.7 -2.8,6.6 -6.4,6.9 6.1,1.9 12.4,4.5 17.1,6 12.2,3.9 17.1,8.3 31.4,17.3 14.2,9 24.4,20.8 35,29.9 10.6,9.2 24.4,20.6 24.4,20.6 0,0 1,-5.3 2.5,-15.1 1.3,-8.7 3.2,-11.1 8.3,-16.7 5.2,-5.6 10.4,-6.5 14.2,-7.2 3.8,-0.7 11.1,1.4 12.8,4.3 1.8,2.9 2.3,5.4 -2.9,9.9 -5.2,4.5 -6.8,9.9 -7.7,32.7 -0.9,22.8 10,34.3 10.4,45.9 14.4,-10.2 24.6,-20.5 26.6,-27.3 0,0 0.3,-6.6 0.4,-13.6 0.1,-8.9 1.7,-18.1 4.3,-27.6 6.7,-0.6 11,-2.9 15.4,-7.6 4.2,-4.6 4.3,-9.7 8.3,-15.5 8.1,-11.6 18.6,-30.1 20.4,-59.6 0.2,-7.2 -1.6,-11.5 -3.8,-13.4 z m -214.4,8.6 c -2.9,-3.8 -28,-16.2 -28.5,-8.3 -0.3,5.2 -8.4,5.2 -8.1,0 1.2,-21.7 36.4,-5.2 43.6,4.2 3.2,4.1 -3.8,8.2 -7,4.1 z m 111.7,36.1 c -3.1,-1.9 -6.2,-3.3 -9.4,-4.3 0.6,1 1,2.2 1,3.5 0,3.8 -3.1,6.9 -6.9,6.9 -3.8,0 -6.9,-3.1 -6.9,-6.9 0,-1.8 0.7,-3.5 1.9,-4.7 -4.9,0.3 -9.8,1.9 -14.4,5 -2.2,1.5 -4.2,-2.1 -2,-3.5 12.4,-8.2 26.6,-7.1 38.9,0.5 2.1,1.4 0.1,4.9 -2.2,3.5 z m 4.5,-27.1 c -1.9,-15.3 -30.9,-2.8 -38.2,1.2 -4.6,2.5 -8.7,-4.5 -4.1,-7 14,-7.6 47.3,-19 50.4,5.8 0.6,5.2 -7.5,5.1 -8.1,0 z"
         inkscape:connector-curvature="0"
         id="path21" /></g></g></svg>