<?xml version="1.0" encoding="UTF-8" standalone="no"?>
<!-- Created with Inkscape (http://www.inkscape.org/) -->

<svg
   xmlns:dc="http://purl.org/dc/elements/1.1/"
   xmlns:cc="http://creativecommons.org/ns#"
   xmlns:rdf="http://www.w3.org/1999/02/22-rdf-syntax-ns#"
   xmlns:svg="http://www.w3.org/2000/svg"
   xmlns="http://www.w3.org/2000/svg"
   xmlns:xlink="http://www.w3.org/1999/xlink"
   xmlns:inkscape="http://www.inkscape.org/namespaces/inkscape"
   version="1.1"
   width="500"
   height="500"
   viewBox="0 0 500 500"
   id="svg2"
   xml:space="preserve"><metadata
     id="metadata45"><rdf:RDF><cc:Work
         rdf:about=""><dc:format>image/svg+xml</dc:format><dc:type
           rdf:resource="http://purl.org/dc/dcmitype/StillImage" /></cc:Work></rdf:RDF></metadata><defs
     id="defs43" /><style
     type="text/css"
     id="style4" /><g
     id="Layer_1"
     style="display:none"><image
       xlink:href="C21F2A6B.jpg"
       style="display:inline;overflow:visible"
       id="image7"
       transform="matrix(1.4143,0,0,1.4143,5.7432,109.001)"
       height="165"
       width="245" /></g><g
     id="Layer_2" /><g
     id="Layer_3" /><g
     id="Layer_4"><g
       id="g12"><defs
         id="defs14"><rect
           width="500"
           height="500"
           x="0"
           y="0"
           id="SVGID_1_" /></defs><clipPath
         id="SVGID_2_"><use
           id="use18"
           style="overflow:visible"
           x="0"
           y="0"
           width="1"
           height="1"
           xlink:href="#SVGID_1_" /></clipPath><g
         clip-path="url(#SVGID_2_)"
         id="g20"><path
           d="m 164.4,371.8 c 0,0 4.5,-15.9 5.7,-25.2 1.2,-9.3 4.2,-24.3 9.6,-28.8 5.4,-4.5 22.2,-13.5 34.1,-16.2 12,-2.7 42.8,-6.6 66.8,-7.2 24,-0.6 24.3,-1.2 27.4,-3.8 3.3,-2.8 10,-7 11.3,-6.5 0.9,0.4 2.6,5.2 2.6,5.2 0,0 -3.3,0.9 -5.1,2.7 -1.8,1.8 -2.7,8.1 -1.2,10.5 1.5,2.4 8.5,13.9 8.5,13.9 0,0 -1.7,2.6 -1.9,7.1 -0.2,4.5 0,17.8 4.8,23.7 4.8,5.8 6.4,7.2 8.2,9 1.8,1.8 7.6,19.6 14.4,27.1 6.7,7.5 22.8,21.6 22.8,21.6 0,0 -23.1,0 -41.3,-1 -18.3,-1 -59.3,-15.8 -80.3,-21.1 -21.3,-5.4 -54.3,-13.6 -67.8,-14.2 -13.5,-0.7 -18.6,3.2 -18.6,3.2 z"
           inkscape:connector-curvature="0"
           id="path22" /><path
           d="m 326.5,269.6 c 0,0 12.4,-10.7 13.7,-13.5 1.3,-2.8 2,-8.8 3.8,-11.5 1.8,-2.7 13.5,-13 20.1,-15.9 6.6,-2.9 11,-5.2 15.1,-2.3 3.3,2.3 9.4,34.7 23.3,43.9 13.9,9.2 14.5,8.7 25.3,9 10.8,0.3 17.2,-1.9 21.3,-4.2 4.1,-2.3 10.6,-10.9 11.7,-10.6 1.1,0.3 1.6,10.4 0.9,14.2 -0.7,3.8 -5.6,13.4 -5.6,13.4 0,0 2.5,0.6 4.2,2.1 2.7,2.4 1,5.6 1,5.6 0,0 11.3,-14.1 16.1,-22.8 4.8,-8.7 18.4,-37.4 18.7,-51.2 0.3,-13.8 -2.7,-31.9 -10.5,-44.4 -7.8,-12.5 -5.4,-6.8 -16,-13.4 -10.6,-6.6 -11.9,-5.8 -16.3,-9.2 -4.4,-3.4 -6,-6 -10.3,-7.6 -4.3,-1.6 -7.1,-1.2 -14.1,-3.6 -7,-2.4 -11.8,-5.9 -24.7,-6 -12.9,-0.1 -30.9,4.4 -37.4,9.3 -6.5,4.9 -21.2,16.8 -25.6,25.5 -4.4,8.7 -7.2,17.3 -9.7,28.1 -2.5,10.9 -5.5,20.9 -5,29 0.5,8.3 0,36.1 0,36.1 z"
           inkscape:connector-curvature="0"
           id="path24" /><path
           d="m 338.6,267.2 c -1.9,0.2 -5.8,2.2 -5.8,2.2 0,0 9.5,-8.4 11,-11.2 1.5,-2.8 1.9,-8 3.4,-11.3 1.5,-3.3 20.7,-17.1 25.4,-17.4 4.6,-0.3 11.9,23.7 16.5,31.4 4.6,7.6 15.1,20.1 28.8,21.9 13.6,1.7 29,-1 33.2,-4.2 4.2,-3.1 7.5,-6.3 7.5,-6.3 0,0 0,5.2 -0.9,8 -0.5,1.6 -0.7,2.8 -2.9,6.6 -1.6,2.8 -2.8,5 -2.8,5 0,0 -4.4,2.4 -6.5,3.9 -5.5,4 -7.8,9.4 -9.7,14.5 -2.8,7.4 -2.9,13.6 -3,16.7 -0.1,4.3 0.5,9.4 -1.9,10.3 -3.4,1.3 -24,-20.7 -30.8,-26.7 -6.9,-6 -19.8,-17.3 -30.1,-23.5 -10.3,-6.2 -18.3,-12.3 -21.1,-15.9 -2.9,-3.4 -6.3,-4.5 -10.3,-4 z"
           inkscape:connector-curvature="0"
           id="path26" /><path
           d="m 454.1,309.3 c 1.6,-3.5 3.8,-6 3.8,-6 0,0 14.7,-1.4 24.2,0.2 13.8,2.4 28.9,9.4 38.3,12.4 9.4,3 24.1,13.1 38.6,13.7 14.6,0.6 33.7,10.4 42.5,24 8.8,13.6 13.7,61.7 13.7,61.7 0,0 -22.3,-14.8 -39.4,-16.2 -17.2,-1.4 -32.4,1.3 -55.4,-0.9 -23,-2.2 -41.9,-4 -54.9,-1.6 -13,2.4 -20.8,4.2 -20.8,4.2 0,0 -6.6,-7.8 -6.6,-18.4 0,-18.2 6.6,-23.5 11.2,-33.5 2.7,-5.9 0.9,-11.2 1.9,-20.4 0.5,-4.1 1.2,-15.3 2.9,-19.2 z"
           inkscape:connector-curvature="0"
           id="path28" /><path
           d="m 323.4,276 c 0,0 -0.3,5.2 -3.9,5.1 -1.5,-0.1 -2.3,-5.4 -3.4,-10.3 -1.5,-6.6 -2.9,-14.1 -2.3,-21.6 1,-13 2.6,-17.9 5.9,-19 3.3,-1 3.7,-0.2 3.7,-0.2 0,0 0.4,10.9 0.3,24.1 -0.1,13.2 -0.3,21.9 -0.3,21.9 z"
           inkscape:connector-curvature="0"
           id="path30" /></g><g
         clip-path="url(#SVGID_2_)"
         id="g32"><g
           transform="translate(-259.19606,-349.50502)"
           id="layer1_3_"><g
             transform="matrix(1.25,0,0,1.25,17.010362,-260.38824)"
             id="layer1-1_3_"><path
               d="m 255,764.1 c -2.6,0 -6.8,-0.4 -9.4,-0.9 -3.9,-0.7 -5.1,-1.1 -7.2,-2.8 -4.7,-3.7 -7.1,-6.4 -10,-15.6 -2.1,-4.2 -2.4,-4.7 -4.2,-6.9 -1.7,-1.9 -2.5,-3.6 -3.1,-6.1 -0.4,-1.6 -0.6,-4.5 -0.7,-6.4 0,-1.9 -0.2,-5.2 -0.7,-7 -0.8,-3.3 -1.6,-4.4 -5.4,-10.2 -3,-4.5 -5,-11 -5.2,-17.1 -0.3,-6.3 -0.3,-8.3 1.2,-10.8 1,-1.7 1.2,-2.1 1.1,-3.5 -0.9,-1.7 -0.7,-13.4 0,-21.7 1.1,-11.9 5,-26.4 9.8,-36.5 2.6,-5.5 7.5,-13.2 11.1,-17.6 3.6,-4.4 12.6,-12.2 17.8,-15.4 11.2,-6.9 23,-10 35,-9.1 12.2,0.8 26.6,6.3 35.4,13.5 3.5,2.9 8.7,9 10.8,12.8 2.2,4.1 5,14.1 5.4,20 0.6,7.3 0,12.6 -2.3,22.9 -1.2,5.4 -2.1,9.4 -1.8,10 0.3,0.8 0.6,1.8 2.3,1.4 4.1,-1 5.1,2.4 4.3,13.6 -0.7,9.8 -1.9,14.1 -5.5,20.2 -2.1,3.5 -6.4,9.2 -9,11.9 -2.8,2.9 -4.3,6.1 -5.5,11.6 -0.6,2.9 -0.8,4.7 -1.2,6.7 -0.5,-1.6 -0.8,-2.8 -1.1,-4.2 -1,-4.7 -3.3,-9.2 -5.6,-11.6 -4.3,-4.7 -5.2,-6.8 -6,-13.3 -1,-7.6 -1.3,-7.8 0.9,-10.3 3.3,-3.9 2.9,-7.4 0.5,-7.9 -9.3,-1.3 -13.4,9.1 -15.6,17.9 -1.1,-0.6 -4.7,-2.2 -9.5,-4.8 -11.6,-6.2 -17.7,-9.5 -22,-11.3 -1.9,-0.8 -3,-1 -4.7,-1.5 -3,-0.9 -7.7,-2.4 -10.4,-3.3 -7.1,-2.2 -10.3,-2.6 -14.4,-1.9 -4.6,0.8 -5.8,1.9 -5.2,4.7 0.9,3.6 5,6.2 20.5,13.4 3.2,1.5 15.6,7.2 15.9,7.5 -1.4,-0.3 -10.3,-4.2 -19.1,-7.9 -14.3,-6 -22.3,-9 -26,-8.6 -1.7,0.2 -3.1,0.6 -4.2,2.5 -2.1,3.5 -0.7,6.6 4.7,10.2 2.1,1.4 14,7.7 19.4,10.2 7.7,3.6 17.4,8.2 20,10.4 -2.1,-0.7 -6.2,-2.4 -9.7,-3.8 -3.5,-1.4 -8.2,-3.1 -10.3,-3.8 -2.1,-0.7 -6,-2 -8.7,-3 -6.2,-2.3 -7.9,-2.7 -9.7,-2.3 -2.9,0.7 -2.9,5 0.1,8.7 2.3,2.8 9.9,7.2 20.6,11.8 9.1,4 9.9,3.9 11.9,7.1 -1.4,0.2 -1.9,-0.1 -4.7,-1.1 -2,-0.7 -4.8,-1.8 -6.3,-2.5 -5.5,-2.6 -12.7,-5.3 -14.4,-5.3 -2.7,-0.1 -4,1.4 -3.3,4 1,4.2 4.2,7.4 16.4,14.7 8,4.8 8,4.3 10.5,8.8 2.1,3.6 6.1,7.9 12.9,14.2 1.9,1.8 3.9,3.7 4,3.9 -1.8,0.9 -5.8,1.5 -10.4,1.4 l 0,0 z"
               inkscape:connector-curvature="0"
               id="path2880_3_"
               style="stroke:#000000" /></g></g><path
           d="m 28.3,288.5 c 2.3,12.6 0.9,12.9 2.9,20.3 1.7,4.6 5.8,6.8 7.8,12.1 1.4,3.3 4.2,11.7 7.2,14.7 2.6,3.4 4,4.8 6.1,6.5 -8.6,0.9 -39.5,-2.4 -47.7,-3.7 -16.3,-2.5 -33.2,-11.9 -49.3,-13.4 -5.1,-0.5 -23.9,1.4 -29.4,1.2 -4.9,-0.1 -18,1.8 -28.7,4.2 -0.5,-0.5 1,-2.8 2,-4.2 6.9,-10.5 15,-23.3 30.6,-28.5 33.9,-11.1 65.2,-0.6 98.5,-9.2 z"
           inkscape:connector-curvature="0"
           id="path37"
           style="fill-rule:evenodd" /><path
           d="m 164.3,271.7 c 0.8,2.4 6.8,9.9 21.8,12 6.9,1 14.7,0.2 21.5,1.9 2.7,0.7 5.4,2.9 8.2,4.4 3.8,2 12.9,5.7 12.9,5.7 0,0 -10.1,0.8 -15.8,2.4 -7.5,2.2 -13.3,3.6 -21.6,8 -6.1,3.2 -12.4,6.4 -15.7,9.8 -2,2 -3.9,6.8 -3.9,6.8 0,0 -1.4,-1.9 -2.7,-3.5 -4.8,-6 -8,-11.3 -9.2,-20.4 -0.5,-3.8 -0.9,-9.4 -0.1,-14.1 0.6,-3.8 1.9,-9.4 4.6,-13 z"
           inkscape:connector-curvature="0"
           id="path39"
           style="fill-rule:evenodd" /></g></g></g></svg>