<?xml version="1.0" encoding="UTF-8" standalone="no"?>
<!-- Created with Inkscape (http://www.inkscape.org/) -->

<svg
   xmlns:dc="http://purl.org/dc/elements/1.1/"
   xmlns:cc="http://creativecommons.org/ns#"
   xmlns:rdf="http://www.w3.org/1999/02/22-rdf-syntax-ns#"
   xmlns:svg="http://www.w3.org/2000/svg"
   xmlns="http://www.w3.org/2000/svg"
   xmlns:inkscape="http://www.inkscape.org/namespaces/inkscape"
   version="1.1"
   width="500"
   height="500"
   viewBox="0 0 500 500"
   id="Layer_1"
   xml:space="preserve"><metadata
     id="metadata31"><rdf:RDF><cc:Work
         rdf:about=""><dc:format>image/svg+xml</dc:format><dc:type
           rdf:resource="http://purl.org/dc/dcmitype/StillImage" /></cc:Work></rdf:RDF></metadata><defs
     id="defs29" /><style
     type="text/css"
     id="style3" /><g
     transform="translate(-259.19606,-349.50502)"
     id="layer1"><g
       transform="matrix(1.25,0,0,1.25,17.010362,-260.38824)"
       id="layer1-1"><path
         d="m 357.3,781.5 c -2.9,-0.8 -7.6,-2.3 -10.4,-3.5 -4.3,-1.8 -5.5,-2.6 -7.4,-5.1 -4.3,-5.5 -6.3,-9.2 -7.1,-20.4 -1.2,-5.3 -1.4,-6 -2.9,-9 -1.4,-2.6 -1.9,-4.8 -1.8,-7.8 0,-1.9 0.5,-5.3 1,-7.4 0.5,-2.2 1.1,-5.9 1.1,-8.1 0,-4 -0.6,-5.4 -3.3,-13 -2.1,-5.9 -2.6,-13.8 -1.2,-20.8 1.4,-7.3 1.9,-9.5 4.3,-11.9 1.6,-1.7 1.9,-2.1 2.2,-3.6 -0.5,-2.1 2.9,-15.3 6,-24.5 4.5,-13.1 12.9,-28.4 21.2,-38.6 4.5,-5.5 12.1,-12.9 17.4,-16.8 5.3,-4 17.6,-10.3 24.4,-12.5 14.6,-4.7 28.8,-4.9 42,-0.7 13.6,4.3 28.3,14.5 36.3,25 3.2,4.2 7.4,12.6 8.7,17.5 1.4,5.2 1.7,17.4 0.6,24.2 -1.4,8.4 -3.4,14.2 -8.9,25.3 -2.8,5.8 -4.9,10 -4.8,10.8 0.1,0.9 0.1,2.2 2.3,2.2 4.9,0 5.1,4.1 1.1,16.5 -3.5,10.9 -6,15.5 -11.7,21.3 -3.3,3.4 -9.8,8.7 -13.5,11 -3.9,2.5 -6.5,5.7 -9.4,11.6 -1.5,3.1 -2.2,5.1 -3.2,7.3 -0.1,-2 -0.1,-3.4 0,-5 0.2,-5.6 -1.2,-11.3 -3.1,-14.6 -3.6,-6.5 -3.9,-9.1 -3.1,-16.7 0.9,-8.9 0.7,-9.2 3.8,-11.4 4.8,-3.4 5.3,-7.6 2.7,-8.8 -10.1,-4 -17.6,6.5 -22.5,15.9 -1.1,-0.9 -4.7,-3.8 -9.4,-8 -11.4,-10.2 -17.5,-15.7 -21.8,-18.8 -1.9,-1.4 -3.2,-2 -4.9,-3 -3.1,-1.9 -8,-4.8 -10.9,-6.6 -7.4,-4.5 -10.9,-5.8 -15.8,-6.1 -5.4,-0.4 -7.1,0.6 -7.1,3.9 0,4.3 3.9,8.4 19.5,20.8 3.2,2.6 15.6,12.5 15.9,12.9 -1.5,-0.8 -10.5,-7.6 -19.4,-14.2 -14.5,-10.7 -22.7,-16.3 -27,-16.8 -2,-0.3 -3.7,-0.1 -5.5,1.7 -3.4,3.4 -2.6,7.2 2.5,12.8 2,2.2 13.8,12.5 19.1,16.8 7.8,6.3 17.4,14.1 19.8,17.3 -2.1,-1.4 -6.3,-4.4 -9.9,-7 -3.6,-2.6 -8.4,-5.7 -10.6,-7.1 -2.2,-1.4 -6.3,-4 -9,-5.8 -6.3,-4.3 -8.2,-5.2 -10.4,-5.2 -3.5,0 -4.7,4.9 -2.3,9.8 1.8,3.8 9.2,10.9 20.1,19.1 9.2,7 10.2,7.1 11.5,11.3 -1.7,-0.2 -2.1,-0.6 -5,-2.5 -2.1,-1.3 -4.9,-3.4 -6.4,-4.6 -5.5,-4.5 -12.9,-9.5 -14.9,-10 -3,-0.8 -4.9,0.5 -4.9,3.6 0,5 2.7,9.5 14.5,21.1 7.8,7.6 7.8,7.1 9.5,12.8 1.4,4.7 4.8,10.6 10.7,19.6 1.7,2.5 3.4,5.2 3.4,5.5 -2.2,0.1 -6.9,-0.4 -12.1,-1.7 l 0,0 z"
         inkscape:connector-curvature="0"
         id="path2880"
         style="stroke:#000000" /></g></g><path
     d="m 165.6,289.5 c -0.9,14.9 -2.5,14.8 -2.3,23.8 0.6,5.6 4.7,9.3 5.5,15.8 0.7,4.1 1.5,14.4 4.1,18.6 2,4.6 3.2,6.6 5.1,9.1 -10,-1.3 -17.1,-5.8 -25.7,-8.8 -8.9,-3.1 -18.3,-4.9 -27.2,-8.5 -17.8,-7.3 -31.9,-21.8 -49.7,-28 -5.6,-1.9 -12,-3 -18.3,-4.7 -5.5,-1.5 -10.9,-4.5 -16.6,-5.9 -10.5,-2.6 -22.1,0.3 -34.8,0 -0.4,-0.7 1.9,-2.9 3.4,-4.2 10.7,-10 23.3,-22.3 42.5,-23.8 41.4,-3.3 73.9,17.1 114,16.6 z"
     inkscape:connector-curvature="0"
     id="path8"
     style="fill-rule:evenodd" /><path
     d="m 324,307.9 c 0.3,2.9 5,13.1 21.4,19.6 7.5,3 16.5,4.2 23.8,8.1 2.9,1.5 5.3,4.7 8.1,7.2 7.8,7.1 17.3,13.5 27.2,18.7 13.4,7 28.3,12.5 40.8,20 26.5,15.7 37,44.7 32.3,86.6 -1.7,0.3 -2,-2 -2.5,-3 -5.8,-9 -11.8,-21 -18.7,-29.3 -5.7,-6.9 -12.2,-12.1 -18.3,-19.1 -5.4,-6.2 -11.6,-16 -18.3,-19.1 -2.5,-1.2 -6.2,-1.6 -9.3,-2.6 -8.8,-2.6 -22.6,-7.3 -34.4,-6.8 -5.3,0.2 -10.5,2.4 -16.1,3 -9.9,1 -19.9,0.3 -31,0 -2.8,-8.1 -7.1,-16 -11,-24.6 -3.7,-8.1 -7.5,-18.7 -6.4,-29.3 0.5,-4.5 1.5,-10.9 3.8,-15.9 1.6,-4.2 4.6,-10.2 8.6,-13.5 z"
     inkscape:connector-curvature="0"
     id="path10"
     style="fill-rule:evenodd" /><g
     transform="translate(-259.19606,-349.50502)"
     id="layer1_1_"><g
       transform="matrix(1.25,0,0,1.25,17.010362,-260.38824)"
       id="layer1-1_1_"><path
         d="m 254.3,697.5 c -1.9,-0.5 -4.8,-1.5 -6.6,-2.3 -2.7,-1.2 -3.5,-1.7 -4.7,-3.3 -2.8,-3.5 -4,-5.9 -4.5,-13.1 -0.8,-3.4 -0.9,-3.9 -1.8,-5.8 -0.9,-1.7 -1.2,-3.1 -1.1,-5 0,-1.2 0.3,-3.4 0.6,-4.8 0.3,-1.4 0.7,-3.8 0.7,-5.2 0,-2.5 -0.4,-3.5 -2.1,-8.3 -1.4,-3.8 -1.7,-8.8 -0.8,-13.3 0.9,-4.6 1.2,-6.1 2.7,-7.6 1,-1.1 1.2,-1.3 1.4,-2.3 -0.3,-1.4 1.8,-9.8 3.8,-15.7 2.9,-8.4 8.3,-18.2 13.6,-24.7 2.9,-3.5 7.8,-8.2 11.1,-10.8 3.4,-2.6 11.3,-6.6 15.6,-8 9.4,-3 18.4,-3.2 26.9,-0.5 8.7,2.8 18.2,9.3 23.3,16 2.1,2.7 4.7,8.1 5.6,11.2 0.9,3.3 1.1,11.1 0.4,15.5 -0.9,5.4 -2.2,9.1 -5.7,16.2 -1.8,3.7 -3.2,6.4 -3.1,6.9 0.1,0.6 0.1,1.4 1.5,1.4 3.2,0 3.2,2.7 0.7,10.6 -2.2,7 -3.8,9.9 -7.5,13.6 -2.1,2.2 -6.3,5.6 -8.6,7 -2.5,1.6 -4.2,3.7 -6,7.4 -1,2 -1.4,3.3 -2,4.7 0,-1.3 -0.1,-2.2 0,-3.2 0.1,-3.6 -0.8,-7.2 -2,-9.4 -2.3,-4.2 -2.5,-5.9 -2,-10.7 0.6,-5.7 0.5,-5.9 2.5,-7.3 3.1,-2.2 3.4,-4.8 1.8,-5.7 -6.5,-2.6 -11.3,4.2 -14.4,10.2 -0.7,-0.6 -3,-2.4 -6,-5.1 -7.3,-6.5 -11.2,-10 -13.9,-12.1 -1.2,-0.9 -2,-1.3 -3.1,-1.9 -2,-1.2 -5.2,-3.1 -7,-4.2 -4.7,-2.9 -7,-3.7 -10.1,-3.9 -3.5,-0.2 -4.6,0.4 -4.6,2.5 0,2.7 2.5,5.4 12.5,13.4 2.1,1.6 10,8 10.2,8.3 -0.9,-0.5 -6.7,-4.9 -12.4,-9.1 -9.3,-6.9 -14.6,-10.4 -17.3,-10.8 -1.3,-0.2 -2.3,-0.1 -3.5,1.1 -2.2,2.2 -1.7,4.6 1.6,8.2 1.3,1.4 8.8,8 12.2,10.8 5,4 11.1,9 12.7,11.1 -1.4,-0.9 -4,-2.8 -6.4,-4.5 -2.3,-1.6 -5.4,-3.7 -6.8,-4.5 -1.4,-0.9 -4,-2.5 -5.8,-3.7 -4.1,-2.7 -5.3,-3.4 -6.7,-3.4 -2.3,0 -3,3.1 -1.5,6.3 1.2,2.4 5.9,7 12.9,12.2 5.9,4.5 6.5,4.6 7.4,7.2 -1.1,-0.1 -1.3,-0.4 -3.2,-1.6 -1.3,-0.9 -3.2,-2.2 -4.1,-2.9 -3.6,-2.9 -8.3,-6.1 -9.5,-6.4 -1.9,-0.5 -3.1,0.3 -3.1,2.3 0,3.2 1.7,6.1 9.3,13.5 5,4.9 5,4.5 6.1,8.2 0.9,3 3.1,6.8 6.8,12.5 1.1,1.6 2.2,3.4 2.2,3.5 -1.9,0.4 -4.9,0.1 -8.2,-0.7 l 0,0 z"
         inkscape:connector-curvature="0"
         id="path2880_1_"
         style="stroke:#000000" /></g></g><g
     transform="translate(-259.19606,-349.50502)"
     id="layer1_3_"><g
       transform="matrix(1.25,0,0,1.25,17.010362,-260.38824)"
       id="layer1-1_3_"><path
         d="m 335.4,619.6 c -1.3,-0.3 -3.4,-1.1 -4.6,-1.6 -1.9,-0.8 -2.4,-1.2 -3.3,-2.3 -1.9,-2.4 -2.8,-4.1 -3.2,-9.1 -0.5,-2.4 -0.6,-2.7 -1.3,-4 -0.6,-1.2 -0.8,-2.2 -0.8,-3.5 0,-0.9 0.2,-2.4 0.5,-3.3 0.2,-1 0.5,-2.7 0.5,-3.6 0,-1.8 -0.3,-2.4 -1.5,-5.8 -0.9,-2.6 -1.2,-6.2 -0.5,-9.3 0.6,-3.2 0.8,-4.2 1.9,-5.3 0.7,-0.7 0.9,-0.9 1,-1.6 -0.2,-1 1.3,-6.9 2.7,-11 2,-5.9 5.8,-12.7 9.5,-17.3 2,-2.5 5.4,-5.8 7.8,-7.5 2.4,-1.8 7.9,-4.6 10.9,-5.6 6.5,-2.1 12.9,-2.2 18.8,-0.3 6.1,1.9 12.7,6.5 16.2,11.2 1.4,1.9 3.3,5.6 3.9,7.8 0.6,2.3 0.8,7.8 0.3,10.8 -0.6,3.8 -1.5,6.4 -4,11.3 -1.3,2.6 -2.2,4.5 -2.2,4.8 0.1,0.4 0.1,1 1,1 2.2,0 2.3,1.9 0.5,7.4 -1.6,4.9 -2.7,6.9 -5.2,9.5 -1.5,1.5 -4.4,3.9 -6,4.9 -1.8,1.1 -2.9,2.6 -4.2,5.2 -0.7,1.4 -1,2.3 -1.4,3.3 0,-0.9 0,-1.5 0,-2.2 0.1,-2.5 -0.6,-5 -1.4,-6.6 -1.6,-2.9 -1.8,-4.1 -1.4,-7.5 0.4,-4 0.3,-4.1 1.7,-5.1 2.2,-1.5 2.4,-3.4 1.2,-4 -4.5,-1.8 -7.9,2.9 -10.1,7.1 -0.5,-0.4 -2.1,-1.7 -4.2,-3.6 -5.1,-4.6 -7.8,-7 -9.7,-8.4 -0.8,-0.6 -1.4,-0.9 -2.2,-1.3 -1.4,-0.8 -3.6,-2.2 -4.9,-2.9 -3.3,-2 -4.9,-2.6 -7.1,-2.8 -2.4,-0.2 -3.2,0.3 -3.2,1.7 0,1.9 1.7,3.8 8.7,9.3 1.4,1.2 7,5.6 7.1,5.8 -0.7,-0.3 -4.7,-3.4 -8.7,-6.4 -6.5,-4.8 -10.2,-7.3 -12.1,-7.5 -0.9,-0.1 -1.6,-0.1 -2.4,0.7 -1.5,1.5 -1.2,3.2 1.1,5.7 0.9,1 6.2,5.6 8.5,7.5 3.5,2.8 7.8,6.3 8.9,7.8 -1,-0.6 -2.8,-2 -4.4,-3.1 -1.6,-1.1 -3.8,-2.6 -4.8,-3.2 -1,-0.6 -2.8,-1.8 -4,-2.6 -2.8,-1.9 -3.7,-2.3 -4.6,-2.3 -1.6,0 -2.1,2.2 -1,4.4 0.8,1.7 4.1,4.9 9,8.5 4.1,3.1 4.5,3.2 5.1,5.1 -0.8,-0.1 -0.9,-0.3 -2.2,-1.1 -0.9,-0.6 -2.2,-1.5 -2.9,-2 -2.5,-2 -5.8,-4.2 -6.7,-4.5 -1.4,-0.4 -2.2,0.2 -2.2,1.6 0,2.2 1.2,4.3 6.5,9.5 3.5,3.4 3.5,3.2 4.2,5.7 0.6,2.1 2.1,4.7 4.8,8.8 0.7,1.1 1.5,2.3 1.5,2.5 -1,0.1 -3,0 -5.4,-0.7 l 0,0 z"
         inkscape:connector-curvature="0"
         id="path2880_3_"
         style="stroke:#000000" /></g></g><g
     transform="translate(-259.19606,-349.50502)"
     id="layer1_5_"><g
       transform="matrix(1.25,0,0,1.25,17.010362,-260.38824)"
       id="layer1-1_5_"><path
         d="m 426.9,600.6 c -1.1,-0.3 -2.9,-0.9 -4,-1.4 -1.7,-0.7 -2.1,-1 -2.9,-2 -1.7,-2.1 -2.4,-3.6 -2.7,-7.9 -0.5,-2.1 -0.6,-2.3 -1.1,-3.5 -0.5,-1 -0.7,-1.9 -0.7,-3 0,-0.7 0.2,-2 0.4,-2.9 0.2,-0.8 0.4,-2.3 0.4,-3.2 0,-1.5 -0.2,-2.1 -1.3,-5.1 -0.8,-2.3 -1,-5.4 -0.5,-8.1 0.6,-2.8 0.7,-3.7 1.7,-4.6 0.6,-0.6 0.8,-0.8 0.8,-1.4 -0.2,-0.8 1.1,-6 2.3,-9.5 1.8,-5.1 5,-11.1 8.2,-15 1.8,-2.1 4.7,-5 6.8,-6.6 2.1,-1.6 6.8,-4 9.5,-4.8 5.7,-1.8 11.2,-1.9 16.4,-0.3 5.3,1.7 11,5.6 14.1,9.7 1.2,1.6 2.9,4.9 3.4,6.8 0.5,2 0.7,6.8 0.2,9.4 -0.5,3.3 -1.3,5.5 -3.4,9.8 -1.1,2.2 -1.9,3.9 -1.9,4.2 0.1,0.4 0.1,0.9 0.9,0.9 1.9,0 2,1.6 0.4,6.4 -1.4,4.2 -2.3,6 -4.6,8.3 -1.3,1.3 -3.8,3.4 -5.2,4.3 -1.5,1 -2.5,2.2 -3.6,4.5 -0.6,1.2 -0.8,2 -1.2,2.8 0,-0.8 0,-1.3 0,-1.9 0.1,-2.2 -0.5,-4.4 -1.2,-5.7 -1.4,-2.5 -1.5,-3.6 -1.2,-6.5 0.4,-3.5 0.3,-3.6 1.5,-4.4 1.9,-1.3 2,-2.9 1.1,-3.4 -3.9,-1.6 -6.9,2.5 -8.8,6.2 -0.4,-0.4 -1.8,-1.5 -3.7,-3.1 -4.4,-4 -6.8,-6.1 -8.5,-7.3 -0.7,-0.5 -1.2,-0.8 -1.9,-1.2 -1.2,-0.7 -3.1,-1.9 -4.2,-2.6 -2.9,-1.7 -4.2,-2.3 -6.1,-2.4 -2.1,-0.1 -2.8,0.2 -2.8,1.5 0,1.7 1.5,3.3 7.6,8.1 1.3,1 6.1,4.9 6.2,5 -0.6,-0.3 -4.1,-3 -7.6,-5.5 -5.6,-4.2 -8.8,-6.3 -10.5,-6.6 -0.8,-0.1 -1.4,-0.1 -2.1,0.6 -1.3,1.3 -1,2.8 1,5 0.8,0.8 5.3,4.9 7.4,6.6 3,2.4 6.8,5.5 7.7,6.7 -0.8,-0.5 -2.5,-1.7 -3.9,-2.7 -1.4,-1 -3.3,-2.2 -4.1,-2.8 -0.9,-0.5 -2.4,-1.5 -3.5,-2.2 -2.5,-1.7 -3.2,-2 -4,-2 -1.4,0 -1.8,1.9 -0.9,3.8 0.7,1.5 3.6,4.2 7.8,7.4 3.6,2.7 4,2.8 4.5,4.4 -0.7,-0.1 -0.8,-0.3 -1.9,-1 -0.8,-0.5 -1.9,-1.3 -2.5,-1.8 -2.2,-1.8 -5,-3.7 -5.8,-3.9 -1.2,-0.3 -1.9,0.2 -1.9,1.4 0,1.9 1.1,3.7 5.6,8.2 3,3 3,2.8 3.7,5 0.5,1.8 1.9,4.1 4.2,7.6 0.6,1 1.3,2 1.3,2.1 -1.1,0.3 -2.9,0.2 -4.9,-0.4 l 0,0 z"
         inkscape:connector-curvature="0"
         id="path2880_5_"
         style="stroke:#000000" /></g></g><g
     transform="translate(-259.19606,-349.50502)"
     id="layer1_4_"><g
       transform="matrix(1.25,0,0,1.25,17.010362,-260.38824)"
       id="layer1-1_4_"><path
         d="m 489.6,645.7 c -1.3,-0.3 -3.4,-1.1 -4.6,-1.6 -1.9,-0.8 -2.4,-1.2 -3.3,-2.3 -1.9,-2.4 -2.8,-4.1 -3.2,-9.1 -0.5,-2.4 -0.6,-2.7 -1.3,-4 -0.6,-1.2 -0.8,-2.2 -0.8,-3.5 0,-0.9 0.2,-2.4 0.5,-3.3 0.2,-1 0.5,-2.7 0.5,-3.6 0,-1.8 -0.3,-2.4 -1.5,-5.8 -1,-2.6 -1.2,-6.2 -0.5,-9.3 0.6,-3.2 0.8,-4.2 1.9,-5.3 0.7,-0.7 0.9,-0.9 1,-1.6 -0.2,-1 1.3,-6.9 2.7,-11 2,-5.9 5.8,-12.7 9.5,-17.3 2,-2.5 5.4,-5.8 7.8,-7.5 2.4,-1.8 7.9,-4.6 10.9,-5.6 6.5,-2.1 12.9,-2.2 18.8,-0.3 6.1,1.9 12.7,6.5 16.2,11.2 1.4,1.9 3.3,5.6 3.9,7.8 0.6,2.3 0.8,7.8 0.3,10.8 -0.6,3.8 -1.5,6.4 -4,11.3 -1.3,2.6 -2.2,4.5 -2.2,4.8 0.1,0.4 0.1,1 1,1 2.2,0 2.3,1.9 0.5,7.4 -1.6,4.9 -2.7,6.9 -5.2,9.5 -1.5,1.5 -4.4,3.9 -6,4.9 -1.8,1.1 -2.9,2.6 -4.2,5.2 -0.7,1.4 -1,2.3 -1.4,3.3 0,-0.9 0,-1.5 0,-2.2 0.1,-2.5 -0.6,-5 -1.4,-6.6 -1.6,-2.9 -1.8,-4.1 -1.4,-7.5 0.4,-4 0.3,-4.1 1.7,-5.1 2.2,-1.5 2.4,-3.4 1.2,-4 -4.5,-1.8 -7.9,2.9 -10.1,7.1 -0.5,-0.4 -2.1,-1.7 -4.2,-3.6 -5.1,-4.6 -7.8,-7 -9.7,-8.4 -0.8,-0.6 -1.4,-0.9 -2.2,-1.3 -1.4,-0.8 -3.6,-2.2 -4.9,-2.9 -3.3,-2 -4.9,-2.6 -7.1,-2.8 -2.4,-0.2 -3.2,0.3 -3.2,1.7 0,1.9 1.7,3.8 8.7,9.3 1.4,1.2 7,5.6 7.1,5.8 -0.7,-0.3 -4.7,-3.4 -8.7,-6.4 -6.5,-4.8 -10.2,-7.3 -12.1,-7.5 -0.9,-0.1 -1.6,-0.1 -2.4,0.7 -1.5,1.5 -1.2,3.2 1.1,5.7 0.9,1 6.2,5.6 8.5,7.5 3.5,2.8 7.8,6.3 8.9,7.8 -1,-0.6 -2.8,-2 -4.4,-3.1 -1.6,-1.1 -3.8,-2.6 -4.8,-3.2 -1,-0.6 -2.8,-1.8 -4,-2.6 -2.8,-1.9 -3.7,-2.3 -4.6,-2.3 -1.6,0 -2.1,2.2 -1,4.4 0.8,1.7 4.1,4.9 9,8.5 4.1,3.1 4.6,3.2 5.1,5.1 -0.7,-0.1 -0.9,-0.3 -2.2,-1.1 -0.9,-0.6 -2.2,-1.5 -2.9,-2 -2.5,-2 -5.8,-4.2 -6.7,-4.5 -1.4,-0.4 -2.2,0.2 -2.2,1.6 0,2.2 1.2,4.3 6.5,9.5 3.5,3.4 3.5,3.2 4.2,5.7 0.6,2.1 2.1,4.7 4.8,8.8 0.7,1.1 1.5,2.3 1.5,2.5 -1,0.1 -3.1,-0.1 -5.4,-0.7 l 0,0 z"
         inkscape:connector-curvature="0"
         id="path2880_4_"
         style="stroke:#000000" /></g></g><g
     transform="translate(-259.19606,-349.50502)"
     id="layer1_2_"><g
       transform="matrix(1.25,0,0,1.25,17.010362,-260.38824)"
       id="layer1-1_2_"><path
         d="m 504.7,758.8 c -1.9,-0.5 -5.1,-1.6 -6.9,-2.4 -2.9,-1.2 -3.6,-1.8 -4.9,-3.4 -2.9,-3.7 -4.2,-6.1 -4.7,-13.7 -0.8,-3.6 -1,-4 -1.9,-6 -0.9,-1.8 -1.2,-3.2 -1.2,-5.2 0,-1.3 0.3,-3.5 0.7,-5 0.3,-1.5 0.8,-4 0.8,-5.4 0,-2.7 -0.4,-3.6 -2.2,-8.7 -1.4,-4 -1.7,-9.2 -0.8,-13.9 1,-4.9 1.3,-6.3 2.9,-8 1.1,-1.1 1.3,-1.4 1.4,-2.4 -0.4,-1.4 1.9,-10.3 4,-16.4 3,-8.8 8.6,-19 14.2,-25.8 3,-3.7 8.1,-8.6 11.6,-11.3 3.6,-2.7 11.8,-6.9 16.3,-8.3 9.8,-3.1 19.3,-3.3 28.2,-0.5 9.1,2.9 19,9.7 24.3,16.7 2.1,2.8 4.9,8.5 5.8,11.7 0.9,3.5 1.1,11.6 0.4,16.2 -0.9,5.6 -2.3,9.5 -5.9,16.9 -1.9,3.9 -3.3,6.7 -3.2,7.2 0.1,0.6 0.1,1.5 1.5,1.5 3.3,0 3.4,2.8 0.7,11.1 -2.3,7.3 -4,10.4 -7.8,14.3 -2.2,2.3 -6.6,5.8 -9,7.3 -2.6,1.7 -4.4,3.8 -6.3,7.8 -1,2.1 -1.4,3.4 -2.1,4.9 0,-1.3 -0.1,-2.3 0,-3.4 0.1,-3.7 -0.8,-7.5 -2.1,-9.8 -2.4,-4.4 -2.6,-6.1 -2.1,-11.2 0.6,-5.9 0.5,-6.1 2.6,-7.6 3.2,-2.3 3.5,-5.1 1.8,-5.9 -6.8,-2.7 -11.8,4.4 -15.1,10.7 -0.8,-0.6 -3.1,-2.5 -6.3,-5.4 -7.6,-6.8 -11.7,-10.5 -14.6,-12.6 -1.3,-0.9 -2.1,-1.3 -3.3,-2 -2.1,-1.3 -5.4,-3.2 -7.3,-4.4 -4.9,-3 -7.3,-3.9 -10.6,-4.1 -3.6,-0.2 -4.8,0.4 -4.8,2.6 0,2.9 2.6,5.6 13.1,14 2.2,1.7 10.5,8.4 10.6,8.6 -1,-0.5 -7,-5.1 -13,-9.5 -9.7,-7.2 -15.2,-10.9 -18.1,-11.3 -1.3,-0.2 -2.4,-0.1 -3.7,1.1 -2.3,2.3 -1.8,4.8 1.7,8.6 1.4,1.5 9.2,8.4 12.8,11.3 5.2,4.2 11.6,9.4 13.2,11.6 -1.4,-0.9 -4.2,-3 -6.6,-4.7 -2.4,-1.7 -5.6,-3.8 -7.1,-4.8 -1.5,-0.9 -4.2,-2.6 -6,-3.9 -4.2,-2.9 -5.5,-3.5 -6.9,-3.5 -2.4,0 -3.1,3.3 -1.5,6.6 1.2,2.6 6.2,7.3 13.4,12.8 6.2,4.7 6.8,4.8 7.7,7.6 -1.1,-0.1 -1.4,-0.4 -3.3,-1.7 -1.4,-0.9 -3.3,-2.3 -4.3,-3 -3.7,-3 -8.6,-6.3 -9.9,-6.7 -2,-0.6 -3.3,0.3 -3.3,2.4 0,3.3 1.8,6.4 9.7,14.2 5.2,5.1 5.2,4.7 6.4,8.6 0.9,3.1 3.2,7.1 7.2,13.1 1.1,1.7 2.3,3.5 2.3,3.7 -1.9,0 -5,-0.2 -8.5,-1.2 l 0,0 z"
         inkscape:connector-curvature="0"
         id="path2880_2_"
         style="stroke:#000000" /></g></g></svg>