<?xml version="1.0" encoding="UTF-8" standalone="no"?>
<!-- Created with Inkscape (http://www.inkscape.org/) -->

<svg
   xmlns:dc="http://purl.org/dc/elements/1.1/"
   xmlns:cc="http://creativecommons.org/ns#"
   xmlns:rdf="http://www.w3.org/1999/02/22-rdf-syntax-ns#"
   xmlns:svg="http://www.w3.org/2000/svg"
   xmlns="http://www.w3.org/2000/svg"
   xmlns:inkscape="http://www.inkscape.org/namespaces/inkscape"
   version="1.1"
   width="500"
   height="500"
   viewBox="0 0 500 500"
   id="Layer_1"
   xml:space="preserve"><metadata
     id="metadata15"><rdf:RDF><cc:Work
         rdf:about=""><dc:format>image/svg+xml</dc:format><dc:type
           rdf:resource="http://purl.org/dc/dcmitype/StillImage" /></cc:Work></rdf:RDF></metadata><defs
     id="defs13" /><g
     id="g3"><path
       d="m 127.9,283.4 c -8.6,0 -15.9,-3.1 -22,-9.2 -6.1,-6.2 -9.1,-13.5 -9.1,-22.1 0,-8.6 3,-16 9.1,-22.3 6.1,-6.3 13.4,-9.4 22,-9.4 8.8,0 16.2,3.1 22.4,9.4 6.2,6.3 9.2,13.7 9.2,22.3 0,8.6 -3.1,16 -9.2,22.1 -6.2,6.2 -13.7,9.2 -22.4,9.2 z"
       inkscape:connector-curvature="0"
       id="path5" /><path
       d="m 252.2,283.4 c -8.6,0 -15.9,-3.1 -22,-9.2 -6.1,-6.2 -9.1,-13.5 -9.1,-22.1 0,-8.6 3,-16 9.1,-22.3 6.1,-6.3 13.4,-9.4 22,-9.4 8.8,0 16.2,3.1 22.4,9.4 6.2,6.3 9.2,13.7 9.2,22.3 0,8.6 -3.1,16 -9.2,22.1 -6.2,6.2 -13.7,9.2 -22.4,9.2 z"
       inkscape:connector-curvature="0"
       id="path7" /><path
       d="m 376.5,283.4 c -8.6,0 -15.9,-3.1 -22,-9.2 -6.1,-6.2 -9.1,-13.5 -9.1,-22.1 0,-8.6 3,-16 9.1,-22.3 6.1,-6.3 13.4,-9.4 22,-9.4 8.8,0 16.2,3.1 22.4,9.4 6.2,6.3 9.2,13.7 9.2,22.3 0,8.6 -3.1,16 -9.2,22.1 -6.2,6.2 -13.7,9.2 -22.4,9.2 z"
       inkscape:connector-curvature="0"
       id="path9" /></g></svg>